<svg width="61" height="27" viewBox="0 0 61 27" fill="none" xmlns="http://www.w3.org/2000/svg">
    <g filter="url(#filter0_d_1_22)">
        <path
            d="M4.11364 18V0.545454H10.0114C11.375 0.545454 12.4943 0.778409 13.3693 1.24432C14.2443 1.70454 14.892 2.33807 15.3125 3.14489C15.733 3.9517 15.9432 4.86932 15.9432 5.89773C15.9432 6.92614 15.733 7.83807 15.3125 8.63352C14.892 9.42898 14.2472 10.054 13.3778 10.5085C12.5085 10.9574 11.3977 11.1818 10.0455 11.1818H5.27273V9.27273H9.97727C10.9091 9.27273 11.6591 9.13636 12.2273 8.86364C12.8011 8.59091 13.2159 8.20455 13.4716 7.70455C13.733 7.19886 13.8636 6.59659 13.8636 5.89773C13.8636 5.19886 13.733 4.58807 13.4716 4.06534C13.2102 3.54261 12.7926 3.1392 12.2188 2.85511C11.6449 2.56534 10.8864 2.42045 9.94318 2.42045H6.22727V18H4.11364ZM12.3295 10.1591L16.625 18H14.1705L9.94318 10.1591H12.3295ZM24.37 18.2727C23.1882 18.2727 22.1513 17.9915 21.2592 17.429C20.3729 16.8665 19.6797 16.0795 19.1797 15.0682C18.6854 14.0568 18.4382 12.875 18.4382 11.5227C18.4382 10.1591 18.6854 8.96875 19.1797 7.9517C19.6797 6.93466 20.3729 6.14489 21.2592 5.58239C22.1513 5.01989 23.1882 4.73864 24.37 4.73864C25.5518 4.73864 26.5859 5.01989 27.4723 5.58239C28.3643 6.14489 29.0575 6.93466 29.5518 7.9517C30.0518 8.96875 30.3018 10.1591 30.3018 11.5227C30.3018 12.875 30.0518 14.0568 29.5518 15.0682C29.0575 16.0795 28.3643 16.8665 27.4723 17.429C26.5859 17.9915 25.5518 18.2727 24.37 18.2727ZM24.37 16.4659C25.2678 16.4659 26.0064 16.2358 26.5859 15.7756C27.1655 15.3153 27.5945 14.7102 27.8729 13.9602C28.1513 13.2102 28.2905 12.3977 28.2905 11.5227C28.2905 10.6477 28.1513 9.83239 27.8729 9.0767C27.5945 8.32102 27.1655 7.71023 26.5859 7.24432C26.0064 6.77841 25.2678 6.54545 24.37 6.54545C23.4723 6.54545 22.7337 6.77841 22.1541 7.24432C21.5746 7.71023 21.1456 8.32102 20.8672 9.0767C20.5888 9.83239 20.4496 10.6477 20.4496 11.5227C20.4496 12.3977 20.5888 13.2102 20.8672 13.9602C21.1456 14.7102 21.5746 15.3153 22.1541 15.7756C22.7337 16.2358 23.4723 16.4659 24.37 16.4659ZM34.3331 4.90909L37.4695 10.2614L40.6058 4.90909H42.924L38.6967 11.4545L42.924 18H40.6058L37.4695 12.9205L34.3331 18H32.0149L36.174 11.4545L32.0149 4.90909H34.3331ZM50.5732 18.2727C49.3913 18.2727 48.3544 17.9915 47.4624 17.429C46.576 16.8665 45.8828 16.0795 45.3828 15.0682C44.8885 14.0568 44.6413 12.875 44.6413 11.5227C44.6413 10.1591 44.8885 8.96875 45.3828 7.9517C45.8828 6.93466 46.576 6.14489 47.4624 5.58239C48.3544 5.01989 49.3913 4.73864 50.5732 4.73864C51.755 4.73864 52.7891 5.01989 53.6754 5.58239C54.5675 6.14489 55.2607 6.93466 55.755 7.9517C56.255 8.96875 56.505 10.1591 56.505 11.5227C56.505 12.875 56.255 14.0568 55.755 15.0682C55.2607 16.0795 54.5675 16.8665 53.6754 17.429C52.7891 17.9915 51.755 18.2727 50.5732 18.2727ZM50.5732 16.4659C51.4709 16.4659 52.2095 16.2358 52.7891 15.7756C53.3686 15.3153 53.7976 14.7102 54.076 13.9602C54.3544 13.2102 54.4936 12.3977 54.4936 11.5227C54.4936 10.6477 54.3544 9.83239 54.076 9.0767C53.7976 8.32102 53.3686 7.71023 52.7891 7.24432C52.2095 6.77841 51.4709 6.54545 50.5732 6.54545C49.6754 6.54545 48.9368 6.77841 48.3572 7.24432C47.7777 7.71023 47.3487 8.32102 47.0703 9.0767C46.7919 9.83239 46.6527 10.6477 46.6527 11.5227C46.6527 12.3977 46.7919 13.2102 47.0703 13.9602C47.3487 14.7102 47.7777 15.3153 48.3572 15.7756C48.9368 16.2358 49.6754 16.4659 50.5732 16.4659Z"
            fill="black" />
    </g>
    <defs>
        <filter id="filter0_d_1_22" x="0.113647" y="0.545441" width="60.3913" height="25.7273"
            filterUnits="userSpaceOnUse" colorInterpolationFilters="sRGB">
            <feFlood floodOpacity="0" result="BackgroundImageFix" />
            <feColorMatrix in="SourceAlpha" type="matrix"
                values="0 0 0 0 0 0 0 0 0 0 0 0 0 0 0 0 0 0 127 0" result="hardAlpha" />
            <feOffset dy="4" />
            <feGaussianBlur stdDeviation="2" />
            <feComposite in2="hardAlpha" operator="out" />
            <feColorMatrix type="matrix" values="0 0 0 0 0 0 0 0 0 0 0 0 0 0 0 0 0 0 0.25 0" />
            <feBlend mode="normal" in2="BackgroundImageFix" result="effect1_dropShadow_1_22" />
            <feBlend mode="normal" in="SourceGraphic" in2="effect1_dropShadow_1_22" result="shape" />
        </filter>
    </defs>
</svg>